<svg width="1664" height="793" xmlns="http://www.w3.org/2000/svg" xmlns:xlink="http://www.w3.org/1999/xlink" xml:space="preserve" overflow="hidden"><defs><clipPath id="clip0"><rect x="2446" y="841" width="1664" height="793"/></clipPath><linearGradient x1="3585.97" y1="591.267" x2="2970.03" y2="1883.73" gradientUnits="userSpaceOnUse" spreadMethod="reflect" id="fill1"><stop offset="0" stop-color="#D91C1E"/><stop offset="0.23" stop-color="#D91C1E"/><stop offset="0.78" stop-color="#3864B2"/><stop offset="1" stop-color="#3864B2"/></linearGradient></defs><g clip-path="url(#clip0)" transform="translate(-2446 -841)"><path d="M3215.01 1117.86C3181.24 1162.49 3149.83 1207.92 3111.8 1248.07 3049.18 1314.2 2974.56 1358.83 2882.79 1368.58 2784.15 1379.06 2691.77 1331.35 2651.14 1228.09 2610.34 1124.39 2640.19 999.773 2722.42 923.606 2765.18 883.997 2814.57 857.33 2871.76 846.98 2941.48 834.361 3008.61 846.765 3073.86 872.439 3138.57 897.899 3193.77 937.751 3244.79 984.05 3255.22 993.517 3264.91 1003.86 3275.86 1012.67 3284.73 1019.8 3285.14 1025.49 3278.18 1034.4 3256.89 1061.67 3236.34 1089.53 3215.01 1117.86M2900.4 1345.98C2940.06 1348.16 2977.17 1338.96 3011.68 1319.83 3074.76 1284.88 3120.55 1231.41 3164.61 1176.16 3168.86 1170.84 3165.93 1167.77 3162.38 1163.94 3143.44 1143.45 3122.22 1125.58 3099.57 1109.41 3047.94 1072.57 2991.31 1047.74 2927.03 1049.05 2829.95 1051.03 2758.84 1098.93 2708.13 1179.81 2702.4 1188.94 2702.25 1197.37 2706.58 1207.07 2720.92 1239.14 2740.78 1267.1 2767.17 1290.34 2804.66 1323.36 2848.39 1341.75 2900.4 1345.98Z" fill="#3864B2" fill-rule="evenodd"/><path d="M2601.5 987.944C2663.44 898.562 2749.72 853.349 2857 841 2853.35 848.761 2847.54 848.339 2842.74 849.389 2737.75 872.354 2625.18 958.628 2599.81 1083.85 2586.55 1149.33 2588.84 1214.08 2618.32 1275.84 2618.78 1276.8 2618.58 1278.07 2618.76 1280 2613.3 1279.4 2611.32 1275.17 2608.81 1272.06 2551.16 1200.59 2541.95 1122.08 2575.12 1037.67 2581.9 1020.44 2590.51 1004.02 2601.5 987.944Z" fill="#3864B2" fill-rule="evenodd"/><path d="M2625 1560.01C2554.74 1512.17 2500.17 1452.36 2469.55 1372.79 2437.25 1288.86 2440.19 1204.4 2466.14 1119.64 2471.92 1100.77 2478.47 1082.2 2486.25 1064.06 2487.49 1061.17 2488.52 1058.21 2492.66 1055.42 2493.7 1065.32 2488.8 1072.67 2487.61 1080.66 2478.76 1139.82 2494.37 1193.4 2525.85 1242.62 2577.04 1322.65 2651.27 1371.37 2741.44 1397.79 2783.28 1410.05 2826.05 1414.5 2869.19 1411.4 2933.67 1406.75 2993.36 1386.29 3048.68 1352.62 3124.6 1306.42 3180.91 1240.63 3232.99 1170.36 3274.46 1114.42 3314.92 1057.71 3361.85 1005.99 3433.37 927.176 3518.2 870.409 3623.9 850.128 3762.67 823.5 3887.25 854.573 3992.26 950.703 4058.75 1011.57 4096.46 1088.56 4107.43 1178.56 4113.87 1231.33 4107.51 1282.86 4096.06 1334.16 4095.66 1335.96 4094.63 1337.61 4092.55 1342.46 4089.58 1325.19 4091.45 1310.95 4089.33 1296.88 4079.12 1229.16 4045.69 1175.59 3991.65 1134.73 3931.18 1089.01 3862.09 1065.97 3786.94 1060.23 3647.26 1049.56 3532.33 1101.49 3435.73 1199.53 3380.69 1255.38 3335.75 1319.45 3288.24 1381.39 3237.78 1447.19 3183.79 1509.32 3114.35 1556.08 3040.38 1605.89 2959.08 1633.65 2869.57 1634 2781.03 1634.34 2700.05 1608.09 2625 1560.01Z" fill="url(#fill1)" fill-rule="evenodd"/><path d="M3343.63 1383.81C3363.25 1357.69 3382.65 1332.48 3401.23 1306.67 3406.86 1298.84 3410.06 1300.34 3416 1305.97 3454 1341.96 3495.86 1372.32 3544.8 1391.84 3675.36 1443.9 3821.41 1397.93 3886.87 1272.36 3892.35 1261.84 3892.78 1252.94 3887.36 1241.92 3859.48 1185.25 3818.95 1142.01 3760.21 1116.89 3748.83 1112.03 3736.34 1111.14 3725.35 1106.6 3725.07 1103.28 3726.85 1102.84 3728.36 1103.04 3799.73 1112.36 3862.68 1139.15 3910.78 1194.42 3983.64 1278.14 3989.82 1400.65 3926.26 1492.34 3885.94 1550.51 3830.13 1587.44 3763.41 1608.88 3727.59 1620.39 3690.84 1627.61 3653.34 1627.98 3571.99 1628.78 3497.29 1604.91 3427.85 1563.38 3379.14 1534.25 3336.59 1497.49 3296.65 1457.43 3291.29 1452.05 3292.33 1448.39 3296.57 1443.16 3312.28 1423.76 3327.62 1404.07 3343.63 1383.81Z" fill="#D91C1E" fill-rule="evenodd"/><path d="M3526 1249.5C3526 1186.26 3579.5 1135 3645.5 1135 3711.5 1135 3765 1186.26 3765 1249.5 3765 1312.74 3711.5 1364 3645.5 1364 3579.5 1364 3526 1312.74 3526 1249.5Z" fill="#3864B2" fill-rule="evenodd"/><path d="M4007.49 1371.91C4012.97 1296.56 4001.17 1226.66 3955.19 1165.47 3954.04 1163.94 3953.1 1162.24 3952.08 1160.63 3955.73 1157.05 3957.63 1160.25 3959.38 1161.85 4015.71 1213.26 4049.43 1275.92 4050.96 1353.13 4052.07 1408.99 4030.7 1457.51 3995.82 1500.28 3962.19 1541.53 3919.1 1570.91 3872.97 1596.29 3871.63 1597.03 3870 1597.26 3867 1596.65 3949.84 1544.32 3996.22 1469.56 4007.49 1371.91Z" fill="#D91C1E" fill-rule="evenodd"/><path d="M2816 1194.5C2816 1136.23 2864.8 1089 2925 1089 2985.2 1089 3034 1136.23 3034 1194.5 3034 1252.77 2985.2 1300 2925 1300 2864.8 1300 2816 1252.77 2816 1194.5Z" fill="#D91C1E" fill-rule="evenodd"/></g></svg>